PathFileType	4	(X/Y/Z)	/Users/rkoike/Documents/python/sports2d/webcam_20250611_152632/webcam_20250611_152632_px_person02.trc
DataRate	CameraRate	NumFrames	NumMarkers	Units	OrigDataRate	OrigDataStartFrame	OrigNumFrames
30	30	4	22	m	30	2174	2485
Frame#	Time	Hip			RHip			RKnee			RAnkle			RBigToe			RSmallToe			RHeel			LHip			LKnee			LAnkle			LBigToe			LSmallToe			LHeel			Neck			Head			Nose			RShoulder			RElbow			RWrist			LShoulder			LElbow			LWrist			
		X1	Y1	Z1	X2	Y2	Z2	X3	Y3	Z3	X4	Y4	Z4	X5	Y5	Z5	X6	Y6	Z6	X7	Y7	Z7	X8	Y8	Z8	X9	Y9	Z9	X10	Y10	Z10	X11	Y11	Z11	X12	Y12	Z12	X13	Y13	Z13	X14	Y14	Z14	X15	Y15	Z15	X16	Y16	Z16	X17	Y17	Z17	X18	Y18	Z18	X19	Y19	Z19	X20	Y20	Z20	X21	Y21	Z21	X22	Y22	Z22
2174	72.49584004294148	609.8231575276079	711.9270591480364	0.0	260.1950560132616	683.2561641452147	0.0	322.955075727902	725.0615484377598	0.0	932.5400681782048	671.1637345931958	0.0	1522.68017578125	-84.62500000000001	0.0	1170.0373850762844	747.2213359773159	0.0	1072.3829767166171	660.4065877825487	0.0	728.5214861525683	700.8857339719434	0.0	877.5764478906099	699.3884569963018	0.0	936.125783781754	680.1280236020684	0.0	629.8403795030381	611.4361839161979	0.0			0.0	937.1353006362915	659.8979678153992	0.0	644.2550192035485	448.00799239134415	0.0	649.0540323136546	174.35499446626102	0.0	658.6555379672582	347.18760920672304	0.0	442.61610407240147	457.61098807810725	0.0	264.98239596678417	678.4539374944419	0.0	519.4315018218341	712.060094534643	0.0	843.4942504386014	512.8207322287135	0.0	874.703154247459	700.0582043246079	0.0	853.1118559425063	719.4225468870436	0.0
2175	72.52918679549113	609.8239491903607	711.9287704156253	0.0	260.1626438421936	683.2545471598115	0.0	322.95387341414926	725.0611719463999	0.0	932.5400681782048	671.1637345931958	0.0	1522.68017578125	-84.62500000000001	0.0	1170.0373850762844	747.2213359773159	0.0	1072.3829767166171	660.4065877825487	0.0	728.5224661318678	700.8873381140157	0.0	877.5764478906099	699.3884569963018	0.0	936.125783781754	680.1280236020684	0.0	629.8403795030381	611.4361839161979	0.0			0.0	937.1353006362915	659.8979678153992	0.0	644.2576037773198	448.0097938867382	0.0	649.0619257807517	174.35634848233335	0.0	658.6639331691485	347.1918745861525	0.0	442.6186986300156	457.6103316369566	0.0	264.9833551535697	678.4526093848659	0.0	519.4341401473878	712.0610077620668	0.0	843.4962381738015	512.8222773947516	0.0	874.6988644665067	700.0575181952499	0.0	853.1147248706634	719.4229576288745	0.0
2176	72.56253354804079	609.8236351219402	711.9304204138471	0.0	260.07807142989986	683.2467331339997	0.0	322.9505283297655	725.0660101171369	0.0	932.5400681782048	671.1637345931958	0.0	1522.68017578125	-84.62500000000001	0.0	1170.0373850762844	747.2213359773159	0.0	1072.3829767166171	660.4065877825487	0.0	728.5205807720153	700.88745074174	0.0	877.5764478906099	699.3884569963018	0.0	936.125783781754	680.1280236020684	0.0	629.8403795030381	611.4361839161979	0.0			0.0	937.1353006362915	659.8979678153992	0.0	644.2649375016309	448.01602756509186	0.0	649.0820571241333	174.36217661131369	0.0	658.6860033679948	347.20390983476136	0.0	442.62546112488127	457.6095910634948	0.0	264.9857325841538	678.4505238782423	0.0	519.4387448162225	712.0623947757605	0.0	843.5003268465823	512.8274936808315	0.0	874.6853160238967	700.0556535551201	0.0	853.1236837891064	719.4243330544238	0.0
2177	72.59588030059044	609.8189995407589	711.9247949813496	0.0	260.0839971512893	683.2402448341368	0.0	322.9503557873985	725.0770629988192	0.0	932.5400681782048	671.1637345931958	0.0	1522.68017578125	-84.62500000000001	0.0	1170.0373850762844	747.2213359773159	0.0	1072.3829767166171	660.4065877825487	0.0	728.5120182753782	700.8794711826758	0.0	877.5764478906099	699.3884569963018	0.0	936.125783781754	680.1280236020684	0.0	629.8403795030381	611.4361839161979	0.0			0.0	937.1353006362915	659.8979678153992	0.0	644.265578094451	448.0185912991889	0.0	649.0797366536839	174.36626023225398	0.0	658.684779466246	347.20483914948426	0.0	442.6249727543578	457.6115458554592	0.0	264.98532066063757	678.4533707273293	0.0	519.4339608571474	712.0603485258162	0.0	843.497891604465	512.8294465091893	0.0	874.6816557481052	700.0556387135181	0.0	853.1259391621461	719.4248310510536	0.0
